<?xml version="1.0" encoding="UTF-8"?>
<svg version="1.1" xmlns="http://www.w3.org/2000/svg" width="175" height="161">
<path d="M0 0 C3.27702452 2.11654903 3.27702452 2.11654903 4.4375 4.4375 C4.82687021 7.69561839 4.95185522 10.97410083 5.125 14.25 C5.18494141 15.15298828 5.24488281 16.05597656 5.30664062 16.98632812 C5.76447644 25.52214374 5.76447644 25.52214374 3.4375 29.4375 C2.4475 29.9325 2.4475 29.9325 1.4375 30.4375 C2.22253906 30.80101562 3.00757812 31.16453125 3.81640625 31.5390625 C19.60150643 39.09266872 19.60150643 39.09266872 22.4375 46.4375 C22.96007014 50.48604342 23.01923355 54.39360467 22.4375 58.4375 C19.9375 61.1875 19.9375 61.1875 17.4375 62.4375 C17.9015625 63.55125 17.9015625 63.55125 18.375 64.6875 C21.30616642 75.03279325 21.13710523 85.23003738 16.15625 94.93359375 C13.32632488 99.54867512 13.32632488 99.54867512 11.4375 101.4375 C8.4375 101.5625 8.4375 101.5625 5.4375 101.4375 C5.1075 101.1075 4.7775 100.7775 4.4375 100.4375 C4.44517137 98.99210111 4.52200881 97.54692972 4.62890625 96.10546875 C4.68626953 95.22439453 4.74363281 94.34332031 4.80273438 93.43554688 C4.93344588 91.57323149 5.06880559 89.71123608 5.20898438 87.84960938 C5.2930957 86.52219727 5.2930957 86.52219727 5.37890625 85.16796875 C5.46700562 83.95210083 5.46700562 83.95210083 5.55688477 82.71166992 C5.42261241 80.1539052 4.72654523 78.62646247 3.4375 76.4375 C3.54449219 77.18773438 3.65148437 77.93796875 3.76171875 78.7109375 C4.74213131 87.08134151 4.58574814 93.72265948 -0.1953125 100.8828125 C-6.61896098 108.76283473 -14.63987356 112.62328845 -24.5625 114.4375 C-27.52750215 114.71843362 -30.46046707 114.77200485 -33.4375 114.75 C-34.62267212 114.74262817 -34.62267212 114.74262817 -35.83178711 114.73510742 C-46.64386351 114.51839914 -56.20992407 111.19534527 -64.375 103.9375 C-65.4578125 102.7 -65.4578125 102.7 -66.5625 101.4375 C-67.5834375 100.3546875 -67.5834375 100.3546875 -68.625 99.25 C-74.31237777 90.99412905 -76.42237087 81.34864315 -75.5625 71.4375 C-72.70629514 56.13218155 -72.70629514 56.13218155 -67.375 51.5625 C-66.776875 51.19125 -66.17875 50.82 -65.5625 50.4375 C-66.2225 49.32375 -66.8825 48.21 -67.5625 47.0625 C-71.53530486 38.09531189 -70.91332181 26.21730725 -67.8125 17.0625 C-66.35321809 13.41429521 -64.61409426 10.94581801 -61.5625 8.4375 C-58.3125 8.6875 -58.3125 8.6875 -55.5625 9.4375 C-55.5625 10.0975 -55.5625 10.7575 -55.5625 11.4375 C-54.9025 11.4375 -54.2425 11.4375 -53.5625 11.4375 C-53.52125 10.756875 -53.48 10.07625 -53.4375 9.375 C-51.93794526 4.34078053 -48.85938725 0.76079317 -44.3046875 -1.86328125 C-30.51048173 -8.12302809 -13.07673071 -7.7542719 0 0 Z M-37.5625 8.4375 C-40.04659787 12.1636468 -40.08755889 15.12217225 -39.5625 19.4375 C-37.82890174 24.09084271 -35.70422505 27.64817496 -31.5625 30.4375 C-28.67640316 30.5395806 -25.98371717 30.21476157 -23.12109375 29.8359375 C-18.99406565 29.37385532 -14.95995772 29.33947277 -10.8125 29.375 C-10.09666748 29.37927002 -9.38083496 29.38354004 -8.64331055 29.38793945 C-6.94967027 29.40012094 -5.25607363 29.41815715 -3.5625 29.4375 C-5.21641768 23.21024933 -7.12009004 17.89787442 -10.5625 12.4375 C-11.2225 12.4375 -11.8825 12.4375 -12.5625 12.4375 C-12.81902344 11.82390625 -13.07554688 11.2103125 -13.33984375 10.578125 C-15.42173137 6.93315881 -18.6855005 5.73646052 -22.5625 4.4375 C-28.7217171 3.39884619 -32.70593927 4.29165548 -37.5625 8.4375 Z M-56.5625 20.4375 C-57.10805287 26.98413442 -56.3902608 31.96128747 -52.5625 37.4375 C-51.9025 37.7675 -51.2425 38.0975 -50.5625 38.4375 C-50.85898437 37.75300781 -51.15546875 37.06851563 -51.4609375 36.36328125 C-52.67150611 33.14797668 -53.4424373 29.97778215 -54.1875 26.625 C-54.44789062 25.46355469 -54.70828125 24.30210938 -54.9765625 23.10546875 C-55.16992188 22.22503906 -55.36328125 21.34460938 -55.5625 20.4375 C-55.8925 20.4375 -56.2225 20.4375 -56.5625 20.4375 Z M-7.5625 42.4375 C-4.4370041 45.08215038 -1.47461733 46.28164715 2.4375 47.4375 C0.31080165 45.09813182 -1.62474856 43.63096152 -4.5625 42.4375 C-5.5525 42.4375 -6.5425 42.4375 -7.5625 42.4375 Z M-59.5625 56.4375 C-62.59046702 68.20750083 -64.04247436 78.62210755 -58 89.8125 C-52.06376776 98.62387123 -43.89364188 103.3105002 -33.5625 105.4375 C-28.24599808 105.92233823 -24.61389203 104.79588413 -20.25 101.75 C-15.86745145 98.07600721 -12.94718968 94.78838135 -12 89 C-12.72653648 84.39860228 -14.2340564 81.59039277 -17.5625 78.4375 C-25.79843892 72.50086895 -35.13710584 68.98989477 -44.5625 65.4375 C-46.23084216 64.77503744 -47.89823981 64.11015165 -49.5625 63.4375 C-50.54293964 66.37881891 -50.67871202 68.26251665 -50.66015625 71.32421875 C-50.65693359 72.26201172 -50.65371094 73.19980469 -50.65039062 74.16601562 C-50.63782227 75.63071289 -50.63782227 75.63071289 -50.625 77.125 C-50.62048828 78.11306641 -50.61597656 79.10113281 -50.61132812 80.11914062 C-50.59954303 82.55865474 -50.58309011 84.99804689 -50.5625 87.4375 C-52.2125 87.4375 -53.8625 87.4375 -55.5625 87.4375 C-60.53903537 79.66166348 -60.65022091 71.76103002 -59.1015625 62.7578125 C-58.66131556 60.96492277 -58.1251618 59.19581813 -57.5625 57.4375 C-58.2225 57.1075 -58.8825 56.7775 -59.5625 56.4375 Z " fill="#F3F3F3" transform="translate(112.5625,27.5625)"/>
<path d="M0 0 C3.27702452 2.11654903 3.27702452 2.11654903 4.4375 4.4375 C4.82687021 7.69561839 4.95185522 10.97410083 5.125 14.25 C5.18494141 15.15298828 5.24488281 16.05597656 5.30664062 16.98632812 C5.76447644 25.52214374 5.76447644 25.52214374 3.4375 29.4375 C2.4475 29.9325 2.4475 29.9325 1.4375 30.4375 C2.22253906 30.80101562 3.00757812 31.16453125 3.81640625 31.5390625 C19.60150643 39.09266872 19.60150643 39.09266872 22.4375 46.4375 C22.96007014 50.48604342 23.01923355 54.39360467 22.4375 58.4375 C19.9375 61.1875 19.9375 61.1875 17.4375 62.4375 C17.9015625 63.55125 17.9015625 63.55125 18.375 64.6875 C21.30616642 75.03279325 21.13710523 85.23003738 16.15625 94.93359375 C13.32632488 99.54867512 13.32632488 99.54867512 11.4375 101.4375 C8.4375 101.5625 8.4375 101.5625 5.4375 101.4375 C5.1075 101.1075 4.7775 100.7775 4.4375 100.4375 C4.44517137 98.99210111 4.52200881 97.54692972 4.62890625 96.10546875 C4.68626953 95.22439453 4.74363281 94.34332031 4.80273438 93.43554688 C4.93344588 91.57323149 5.06880559 89.71123608 5.20898438 87.84960938 C5.2930957 86.52219727 5.2930957 86.52219727 5.37890625 85.16796875 C5.46700562 83.95210083 5.46700562 83.95210083 5.55688477 82.71166992 C5.42261241 80.1539052 4.72654523 78.62646247 3.4375 76.4375 C3.54449219 77.18773438 3.65148437 77.93796875 3.76171875 78.7109375 C4.74213131 87.08134151 4.58574814 93.72265948 -0.1953125 100.8828125 C-6.61896098 108.76283473 -14.63987356 112.62328845 -24.5625 114.4375 C-27.52750215 114.71843362 -30.46046707 114.77200485 -33.4375 114.75 C-34.62267212 114.74262817 -34.62267212 114.74262817 -35.83178711 114.73510742 C-46.64386351 114.51839914 -56.20992407 111.19534527 -64.375 103.9375 C-65.4578125 102.7 -65.4578125 102.7 -66.5625 101.4375 C-67.5834375 100.3546875 -67.5834375 100.3546875 -68.625 99.25 C-74.31237777 90.99412905 -76.42237087 81.34864315 -75.5625 71.4375 C-72.70629514 56.13218155 -72.70629514 56.13218155 -67.375 51.5625 C-66.776875 51.19125 -66.17875 50.82 -65.5625 50.4375 C-66.2225 49.32375 -66.8825 48.21 -67.5625 47.0625 C-71.53530486 38.09531189 -70.91332181 26.21730725 -67.8125 17.0625 C-66.35321809 13.41429521 -64.61409426 10.94581801 -61.5625 8.4375 C-58.3125 8.6875 -58.3125 8.6875 -55.5625 9.4375 C-55.5625 10.0975 -55.5625 10.7575 -55.5625 11.4375 C-54.9025 11.4375 -54.2425 11.4375 -53.5625 11.4375 C-53.52125 10.756875 -53.48 10.07625 -53.4375 9.375 C-51.93794526 4.34078053 -48.85938725 0.76079317 -44.3046875 -1.86328125 C-30.51048173 -8.12302809 -13.07673071 -7.7542719 0 0 Z M-48.5625 4.3125 C-53.69581198 10.89521771 -54.3367827 17.26583955 -53.5625 25.4375 C-52.30248513 30.27522134 -49.55082468 34.48519962 -46.5625 38.4375 C-45.9025 38.4375 -45.2425 38.4375 -44.5625 38.4375 C-44.5625 39.7575 -44.5625 41.0775 -44.5625 42.4375 C-46.75 43.1875 -46.75 43.1875 -49.5625 43.4375 C-54.06557991 41.07338305 -56.46951472 37.19138195 -58.625 32.71875 C-60.59324026 25.82990909 -59.91018464 18.53026671 -59.5625 11.4375 C-60.5525 11.4375 -61.5425 11.4375 -62.5625 11.4375 C-62.5625 12.4275 -62.5625 13.4175 -62.5625 14.4375 C-63.2225 14.4375 -63.8825 14.4375 -64.5625 14.4375 C-68.68730469 25.15462646 -70.54763012 33.40120998 -65.77734375 44.1640625 C-64.04270192 47.4102411 -62.16747561 49.83252439 -59.5625 52.4375 C-58.9025 52.4375 -58.2425 52.4375 -57.5625 52.4375 C-57.38340188 56.82540394 -57.26138432 60.5508816 -58.6875 64.75 C-59.97021856 70.15574251 -58.96571761 75.1052731 -57.5625 80.4375 C-56.9025 81.4275 -56.2425 82.4175 -55.5625 83.4375 C-54.9025 83.4375 -54.2425 83.4375 -53.5625 83.4375 C-53.57297363 82.85258789 -53.58344727 82.26767578 -53.59423828 81.66503906 C-53.63590264 79.00590337 -53.66185901 76.34683647 -53.6875 73.6875 C-53.70425781 72.76710938 -53.72101562 71.84671875 -53.73828125 70.8984375 C-53.74472656 70.00898437 -53.75117187 69.11953125 -53.7578125 68.203125 C-53.76828613 67.38618164 -53.77875977 66.56923828 -53.78955078 65.72753906 C-53.54079916 63.21862482 -52.81950129 61.60354375 -51.5625 59.4375 C-45.75392792 61.74651812 -39.997527 64.16842253 -34.25 66.625 C-32.59581055 67.31045898 -32.59581055 67.31045898 -30.90820312 68.00976562 C-23.17341102 71.33918957 -14.89699631 75.16367492 -11.5625 83.4375 C-10.93675561 89.69494388 -11.78973048 94.30477867 -15.5625 99.4375 C-21.83752448 105.19911339 -27.54355035 105.77842678 -35.90234375 105.7265625 C-41.85624954 105.25635009 -46.95387723 103.42479625 -51.7109375 99.80078125 C-53.44770502 98.23986359 -53.44770502 98.23986359 -55.5625 98.4375 C-55.8409375 97.85613281 -56.119375 97.27476563 -56.40625 96.67578125 C-57.85022048 93.88052758 -59.58288051 91.33419346 -61.34375 88.73046875 C-64.39949355 82.98136149 -64.86430843 77.41161877 -64.75 71.0625 C-64.74033203 69.94693726 -64.74033203 69.94693726 -64.73046875 68.80883789 C-64.65804244 63.62979124 -64.30865826 58.56733803 -63.5625 53.4375 C-66.81494028 54.04745906 -66.81494028 54.04745906 -69.125 56.375 C-74.90400022 68.68678309 -74.67087631 78.54219394 -70.14453125 91.2734375 C-68.40520932 94.75208136 -66.42227974 96.8319229 -63.5625 99.4375 C-62.4796875 100.675 -62.4796875 100.675 -61.375 101.9375 C-52.05909038 110.21830855 -41.66533424 111.12704669 -29.74707031 110.61669922 C-19.37649487 109.76600606 -11.28941661 105.41992562 -4.25 98 C-0.00328259 91.55128098 1.4919483 86.13376062 0.4375 78.4375 C-2.23899406 69.22968711 -9.52835963 63.37432077 -17.59057617 58.87475586 C-25.01523779 54.90748529 -32.44288732 51.73395611 -40.5625 49.4375 C-41.5525 49.1075 -42.5425 48.7775 -43.5625 48.4375 C-43.5625 47.7775 -43.5625 47.1175 -43.5625 46.4375 C-38.24510511 45.07723619 -38.24510511 45.07723619 -35.3125 46.625 C-34.405 47.223125 -33.4975 47.82125 -32.5625 48.4375 C-31.15684139 49.02696974 -29.73811395 49.5855785 -28.3125 50.125 C-23.43013245 52.04123749 -18.64379731 54.13187406 -13.875 56.3125 C-13.1624707 56.62791748 -12.44994141 56.94333496 -11.71582031 57.26831055 C-3.92654191 60.87623339 3.30604966 66.14199399 6.4375 74.4375 C6.99730664 78.63214748 6.91412187 82.71578062 6.75 86.9375 C6.72744141 88.04609375 6.70488281 89.1546875 6.68164062 90.296875 C6.62312829 93.01184753 6.54120491 95.7239413 6.4375 98.4375 C10.34496405 97.13501198 10.68633889 95.7889751 12.5625 92.1875 C16.41490868 84.09840248 17.55782523 76.04319189 15.5625 67.25 C10.67094268 53.63774773 -2.55256991 47.78619221 -14.6875 42.0625 C-17.30828371 40.84461283 -19.93408404 39.63888734 -22.5625 38.4375 C-22.5625 38.1075 -22.5625 37.7775 -22.5625 37.4375 C-12.04867148 36.5986307 -3.11021284 38.56039847 5.3125 45.1875 C9.08015733 48.72372875 11.77179733 53.04348462 14.4375 57.4375 C15.7575 57.1075 17.0775 56.7775 18.4375 56.4375 C19.12427093 50.23857572 19.12427093 50.23857572 17.3828125 44.390625 C11.34084585 37.0096279 2.77323612 33.02143403 -6.3125 30.75 C-13.61721439 30.04762362 -20.73301444 30.3091449 -28 31.25 C-33.14539088 31.72692265 -33.14539088 31.72692265 -36.625 29.3125 C-41.18173246 22.55089699 -43.11352067 18.58978014 -42.5625 10.4375 C-41.51256966 6.41276705 -40.15096717 4.54836304 -36.5625 2.4375 C-30.16875819 0.50987508 -23.81233874 0.40363652 -17.8125 3.5 C-9.22473654 8.94294867 -6.03342291 16.08443783 -2.5625 25.4375 C-1.2425 25.1075 0.0775 24.7775 1.4375 24.4375 C1.51876109 21.70772936 1.57811663 18.9803983 1.625 16.25 C1.65013672 15.48107422 1.67527344 14.71214844 1.70117188 13.91992188 C1.76110936 9.26477703 1.53066896 6.17449599 -1.5625 2.4375 C-3.34985041 1.08952707 -3.34985041 1.08952707 -5.375 0.25 C-6.02082031 -0.05292969 -6.66664062 -0.35585938 -7.33203125 -0.66796875 C-8.06808594 -0.96316406 -8.80414063 -1.25835937 -9.5625 -1.5625 C-10.44808594 -1.92214844 -11.33367187 -2.28179688 -12.24609375 -2.65234375 C-24.40017187 -5.98791525 -39.6147173 -5.18087921 -48.5625 4.3125 Z M-37.5625 8.4375 C-40.04659787 12.1636468 -40.08755889 15.12217225 -39.5625 19.4375 C-37.82890174 24.09084271 -35.70422505 27.64817496 -31.5625 30.4375 C-28.67640316 30.5395806 -25.98371717 30.21476157 -23.12109375 29.8359375 C-18.99406565 29.37385532 -14.95995772 29.33947277 -10.8125 29.375 C-10.09666748 29.37927002 -9.38083496 29.38354004 -8.64331055 29.38793945 C-6.94967027 29.40012094 -5.25607363 29.41815715 -3.5625 29.4375 C-5.21641768 23.21024933 -7.12009004 17.89787442 -10.5625 12.4375 C-11.2225 12.4375 -11.8825 12.4375 -12.5625 12.4375 C-12.81902344 11.82390625 -13.07554688 11.2103125 -13.33984375 10.578125 C-15.42173137 6.93315881 -18.6855005 5.73646052 -22.5625 4.4375 C-28.7217171 3.39884619 -32.70593927 4.29165548 -37.5625 8.4375 Z M-56.5625 20.4375 C-57.10805287 26.98413442 -56.3902608 31.96128747 -52.5625 37.4375 C-51.9025 37.7675 -51.2425 38.0975 -50.5625 38.4375 C-50.85898437 37.75300781 -51.15546875 37.06851563 -51.4609375 36.36328125 C-52.67150611 33.14797668 -53.4424373 29.97778215 -54.1875 26.625 C-54.44789062 25.46355469 -54.70828125 24.30210938 -54.9765625 23.10546875 C-55.16992188 22.22503906 -55.36328125 21.34460938 -55.5625 20.4375 C-55.8925 20.4375 -56.2225 20.4375 -56.5625 20.4375 Z M-7.5625 42.4375 C-4.4370041 45.08215038 -1.47461733 46.28164715 2.4375 47.4375 C0.31080165 45.09813182 -1.62474856 43.63096152 -4.5625 42.4375 C-5.5525 42.4375 -6.5425 42.4375 -7.5625 42.4375 Z M-59.5625 56.4375 C-62.59046702 68.20750083 -64.04247436 78.62210755 -58 89.8125 C-52.06376776 98.62387123 -43.89364188 103.3105002 -33.5625 105.4375 C-28.24599808 105.92233823 -24.61389203 104.79588413 -20.25 101.75 C-15.86745145 98.07600721 -12.94718968 94.78838135 -12 89 C-12.72653648 84.39860228 -14.2340564 81.59039277 -17.5625 78.4375 C-25.79843892 72.50086895 -35.13710584 68.98989477 -44.5625 65.4375 C-46.23084216 64.77503744 -47.89823981 64.11015165 -49.5625 63.4375 C-50.54293964 66.37881891 -50.67871202 68.26251665 -50.66015625 71.32421875 C-50.65693359 72.26201172 -50.65371094 73.19980469 -50.65039062 74.16601562 C-50.63782227 75.63071289 -50.63782227 75.63071289 -50.625 77.125 C-50.62048828 78.11306641 -50.61597656 79.10113281 -50.61132812 80.11914062 C-50.59954303 82.55865474 -50.58309011 84.99804689 -50.5625 87.4375 C-52.2125 87.4375 -53.8625 87.4375 -55.5625 87.4375 C-60.53903537 79.66166348 -60.65022091 71.76103002 -59.1015625 62.7578125 C-58.66131556 60.96492277 -58.1251618 59.19581813 -57.5625 57.4375 C-58.2225 57.1075 -58.8825 56.7775 -59.5625 56.4375 Z " fill="#090909" transform="translate(112.5625,27.5625)"/>
<path d="M0 0 C-0.165 1.134375 -0.33 2.26875 -0.5 3.4375 C-1.76832442 15.42032622 -2.99119278 28.61572456 4.37890625 38.9296875 C5.54669048 40.32038212 6.76826284 41.66561808 8 43 C8 43.66 8 44.32 8 45 C8.86625 45.43119141 8.86625 45.43119141 9.75 45.87109375 C11.17092503 46.58402315 12.58815251 47.30441488 14 48.03515625 C14.66 48.37417969 15.32 48.71320313 16 49.0625 C16.66 49.40410156 17.32 49.74570313 18 50.09765625 C21.37175899 51.61889907 24.42448731 52.12557207 28.109375 52.09765625 C29.24052734 52.09282227 29.24052734 52.09282227 30.39453125 52.08789062 C31.17183594 52.07951172 31.94914062 52.07113281 32.75 52.0625 C33.54277344 52.05798828 34.33554688 52.05347656 35.15234375 52.04882812 C37.10159508 52.03708565 39.05080738 52.01915146 41 52 C41 52.66 41 53.32 41 54 C41.99 54.33 42.98 54.66 44 55 C38.45675362 56.5553441 33.44053055 57.38823601 27.6875 57.375 C26.94910889 57.37338867 26.21071777 57.37177734 25.44995117 57.37011719 C14.80882576 57.13341567 5.94912503 53.18487958 -1.5625 45.625 C-7.69182633 38.31067058 -10.91048643 28.32558426 -10.4296875 18.80859375 C-9.52040432 12.86518824 -8.29315562 5.96688598 -4.55078125 1.125 C-3 0 -3 0 0 0 Z " fill="#EDEDED" transform="translate(49,81)"/>
<path d="M0 0 C1.2694043 -0.01836914 1.2694043 -0.01836914 2.56445312 -0.03710938 C7.01296872 -0.04756008 10.51983487 0.08730641 14.5625 2.1875 C14.5625 2.8475 14.5625 3.5075 14.5625 4.1875 C13.76328125 4.02894531 12.9640625 3.87039062 12.140625 3.70703125 C1.78630257 2.2036198 -11.43796638 1.03751811 -20.4375 7.1875 C-25.43187325 11.52997611 -28.09570591 16.0921854 -28.65234375 22.76171875 C-28.93165508 30.95112694 -27.05176931 36.36640623 -22.4375 43.1875 C-21.7775 43.5175 -21.1175 43.8475 -20.4375 44.1875 C-20.4375 45.5075 -20.4375 46.8275 -20.4375 48.1875 C-22.0875 48.8475 -23.7375 49.5075 -25.4375 50.1875 C-31.11592191 46.2258103 -34.16227495 41.74838604 -36.4375 35.1875 C-36.89195631 32.10442709 -36.7701349 29.27778555 -36.4375 26.1875 C-36.31761719 24.9190625 -36.31761719 24.9190625 -36.1953125 23.625 C-35.97367088 21.47574791 -35.7096826 19.33093794 -35.4375 17.1875 C-36.4275 17.1875 -37.4175 17.1875 -38.4375 17.1875 C-38.4375 18.1775 -38.4375 19.1675 -38.4375 20.1875 C-39.0975 20.1875 -39.7575 20.1875 -40.4375 20.1875 C-41.0975 23.1575 -41.7575 26.1275 -42.4375 29.1875 C-42.7675 29.1875 -43.0975 29.1875 -43.4375 29.1875 C-43.32316671 24.51022915 -43.09282917 20.42583195 -40.25 16.5625 C-37.4375 14.1875 -37.4375 14.1875 -34.125 14.3125 C-32.7946875 14.745625 -32.7946875 14.745625 -31.4375 15.1875 C-31.4375 15.8475 -31.4375 16.5075 -31.4375 17.1875 C-30.7775 17.1875 -30.1175 17.1875 -29.4375 17.1875 C-29.39625 16.506875 -29.355 15.82625 -29.3125 15.125 C-27.81294526 10.09078053 -24.73438725 6.51079317 -20.1796875 3.88671875 C-13.28497891 0.75793185 -7.5088001 0.0056928 0 0 Z M-32.4375 26.1875 C-32.98305287 32.73413442 -32.2652608 37.71128747 -28.4375 43.1875 C-27.7775 43.5175 -27.1175 43.8475 -26.4375 44.1875 C-26.73398437 43.50300781 -27.03046875 42.81851563 -27.3359375 42.11328125 C-28.54650611 38.89797668 -29.3174373 35.72778215 -30.0625 32.375 C-30.32289062 31.21355469 -30.58328125 30.05210938 -30.8515625 28.85546875 C-31.04492188 27.97503906 -31.23828125 27.09460938 -31.4375 26.1875 C-31.7675 26.1875 -32.0975 26.1875 -32.4375 26.1875 Z " fill="#0D0D0D" transform="translate(88.4375,21.8125)"/>
<path d="M0 0 C2.44652996 2.03340977 2.9625669 2.88770069 4 6 C4.07973476 7.33525717 4.10771338 8.67412083 4.09765625 10.01171875 C4.09443359 10.76904297 4.09121094 11.52636719 4.08789062 12.30664062 C4.07532227 13.48516602 4.07532227 13.48516602 4.0625 14.6875 C4.05798828 15.48478516 4.05347656 16.28207031 4.04882812 17.10351562 C4.0370585 19.06904257 4.01912348 21.03453085 4 23 C2.68 23.33 1.36 23.66 0 24 C-0.27972656 23.2265625 -0.55945313 22.453125 -0.84765625 21.65625 C-4.29475912 12.7004329 -8.47786593 4.72044776 -17.6015625 0.609375 C-22.63835008 -0.67032999 -27.84959956 -0.28264393 -33 0 C-32.34 -0.66 -31.68 -1.32 -31 -2 C-33.31 -2 -35.62 -2 -38 -2 C-29.73336667 -10.26663333 -8.79241091 -4.93877511 0 0 Z " fill="#ECECEC" transform="translate(110,29)"/>
<path d="M0 0 C0.66 0 1.32 0 2 0 C2.66 1.65 3.32 3.3 4 5 C4.99 5 5.98 5 7 5 C6.50886719 5.78632812 6.01773438 6.57265625 5.51171875 7.3828125 C3.56306499 12.04548273 3.66604637 15.88806604 3.8125 20.875 C3.82603516 21.75414063 3.83957031 22.63328125 3.85351562 23.5390625 C3.88863377 25.69297552 3.94243306 27.84657004 4 30 C1 29 1 29 -0.140625 26.78125 C-1.00802481 23.97402881 -1.47089632 21.42237969 -1.75 18.5 C-1.89695313 17.12328125 -1.89695313 17.12328125 -2.046875 15.71875 C-1.9946001 12.68680561 -1.16942597 10.77180736 0 8 C0.23806806 5.79137596 0.23806806 5.79137596 0.125 3.6875 C0.08375 2.470625 0.0425 1.25375 0 0 Z " fill="#C5C5C5" transform="translate(55,81)"/>
<path d="M0 0 C0.82064941 -0.00161133 1.64129883 -0.00322266 2.48681641 -0.00488281 C6.79140985 0.0745866 10.20609888 0.39175045 14.125 2.375 C14.125 3.035 14.125 3.695 14.125 4.375 C13.32578125 4.21644531 12.5265625 4.05789062 11.703125 3.89453125 C-0.01946012 2.19245284 -12.81782766 1.60586849 -22.80078125 8.75390625 C-24.21480687 9.89487865 -25.55598443 11.1254063 -26.875 12.375 C-26.57702312 9.59388247 -25.93119585 8.43494224 -24 6.375 C-16.23054954 1.40255171 -9.1100222 0.01736897 0 0 Z " fill="#0B0B0B" transform="translate(88.875,21.625)"/>
<path d="M0 0 C0.97066406 0.32742187 1.94132812 0.65484375 2.94140625 0.9921875 C7.3010926 2.23781217 11.43375972 2.2253404 15.9375 2.125 C16.71673828 2.11597656 17.49597656 2.10695312 18.29882812 2.09765625 C20.19935447 2.07433691 22.09972008 2.03847586 24 2 C24 2.66 24 3.32 24 4 C24.99 4.33 25.98 4.66 27 5 C21.16420924 6.68442142 16.05539796 7.26143011 10 7.125 C8.83791016 7.11146484 8.83791016 7.11146484 7.65234375 7.09765625 C5.76809157 7.07439388 3.88400168 7.0385364 2 7 C2 6.67 2 6.34 2 6 C3.65 6 5.3 6 7 6 C6.10664203 3.64214682 6.10664203 3.64214682 2.9375 2.875 C1.968125 2.58625 0.99875 2.2975 0 2 C0 1.34 0 0.68 0 0 Z " fill="#C3C3C3" transform="translate(66,131)"/>
<path d="M0 0 C1.89492187 0.01353516 1.89492187 0.01353516 3.828125 0.02734375 C4.79234375 0.03894531 5.7565625 0.05054687 6.75 0.0625 C5.76 0.7225 4.77 1.3825 3.75 2.0625 C3.75 2.7225 3.75 3.3825 3.75 4.0625 C-2.19 4.5575 -2.19 4.5575 -8.25 5.0625 C-7.59 4.4025 -6.93 3.7425 -6.25 3.0625 C-8.56 3.0625 -10.87 3.0625 -13.25 3.0625 C-9.46545136 -0.72204864 -5.14534429 -0.04764208 0 0 Z " fill="#CACACA" transform="translate(85.25,23.9375)"/>
<path d="M0 0 C0.33 0 0.66 0 1 0 C1 2.31 1 4.62 1 7 C1.66 7 2.32 7 3 7 C3.33 5.68 3.66 4.36 4 3 C4.33 6.63 4.66 10.26 5 14 C2 13 2 13 0.8125 10.9375 C-0.23642055 7.14524878 -0.13319932 3.92937998 0 0 Z " fill="#B4B4B4" transform="translate(54,97)"/>
<path d="M0 0 C0 0.66 0 1.32 0 2 C-0.80695313 1.84660156 -1.61390625 1.69320313 -2.4453125 1.53515625 C-6.59047179 0.9111048 -10.6922296 0.65372796 -14.875 0.4375 C-15.65875 0.39431641 -16.4425 0.35113281 -17.25 0.30664062 C-19.16650649 0.20146649 -21.08323333 0.10032075 -23 0 C-23 -0.33 -23 -0.66 -23 -1 C-20.47970021 -1.22389218 -17.96002743 -1.42942078 -15.4375 -1.625 C-14.73302734 -1.68945312 -14.02855469 -1.75390625 -13.30273438 -1.8203125 C-8.37705301 -2.18349638 -4.67412034 -1.60922409 0 0 Z " fill="#232323" transform="translate(103,24)"/>
<path d="M0 0 C0 3 0 3 -2 6 C-1.01 6.33 -0.02 6.66 1 7 C-1.64 7.33 -4.28 7.66 -7 8 C-6.875 6.25 -6.875 6.25 -6 4 C-2.9375 1.75 -2.9375 1.75 0 0 Z " fill="#DADADA" transform="translate(97,127)"/>
<path d="M0 0 C0.33 0 0.66 0 1 0 C0.63126118 6.14564694 -0.77253377 8.77253377 -5 13 C-5.99 13.33 -6.98 13.66 -8 14 C-6.89824464 11.52105044 -5.733707 9.6754554 -4 7.5625 C-2.06299991 5.08071863 -1.01429561 2.95836218 0 0 Z " fill="#121212" transform="translate(100,117)"/>
<path d="M0 0 C0 0.66 0 1.32 0 2 C0.99 2.33 1.98 2.66 3 3 C-3.625 4.125 -3.625 4.125 -7 3 C-8.99673484 2.64763503 -10.99650739 2.31165441 -13 2 C-13 1.67 -13 1.34 -13 1 C-11.39602723 0.83147753 -9.7918131 0.66525114 -8.1875 0.5 C-7.29417969 0.4071875 -6.40085937 0.314375 -5.48046875 0.21875 C-3 0 -3 0 0 0 Z " fill="#A5A5A5" transform="translate(90,133)"/>
<path d="M0 0 C0.99 0 1.98 0 3 0 C3 2.97 3 5.94 3 9 C2.67 9 2.34 9 2 9 C1.67 7.35 1.34 5.7 1 4 C0.01 5.485 0.01 5.485 -1 7 C-1.66 7 -2.32 7 -3 7 C-2.67 5.68 -2.34 4.36 -2 3 C-1.34 3 -0.68 3 0 3 C0 2.01 0 1.02 0 0 Z " fill="#C6C6C6" transform="translate(50,39)"/>
<path d="M0 0 C0.33 1.32 0.66 2.64 1 4 C0.34 4 -0.32 4 -1 4 C-1.66 6.97 -2.32 9.94 -3 13 C-3.33 13 -3.66 13 -4 13 C-3.40546697 3.40546697 -3.40546697 3.40546697 0 0 Z " fill="#151515" transform="translate(49,38)"/>
<path d="M0 0 C0.99 0.33 1.98 0.66 3 1 C3.66 0.67 4.32 0.34 5 0 C4.1875 2.4375 4.1875 2.4375 3 5 C2.01 5.33 1.02 5.66 0 6 C0 4.02 0 2.04 0 0 Z " fill="#979797" transform="translate(119,120)"/>
</svg>
